General
Unique ID : 154092972026667777484735847372200883625 (0x73ED3A166B1F9C4BFC1ECC7784A035A9)
Complete name : D:\My Stuff\Documents\Torrents\Bubble Gum Pakistani Punjabi Stage Show\Bubble Gum Pakistani Punjabi Stage Show.mkv
Format : Matroska
Format version : Version 2
File size : 647 MiB
Duration : 1h 53mn
Overall bit rate : 796 Kbps
Encoded date : UTC 2011-08-14 21:45:06
Writing application : TMPGEnc Video Mastering Works 5 Version. 5.0.6.38
Writing library : TMPGEnc Video Mastering Works 5 Version. 5.0.6.38

Video
ID : 2
Format : AVC
Format/Info : Advanced Video Codec
Format profile : High@L1.3
Format settings, CABAC : Yes
Format settings, ReFrames : 3 frames
Codec ID : V_MPEG4/ISO/AVC
Duration : 1h 53mn
Bit rate mode : Constant
Bit rate : 750 Kbps / 750 Kbps
Width : 352 pixels
Height : 288 pixels
Display aspect ratio : 4:3
Frame rate : 25.000 fps
Standard : NTSC
Color space : YUV
Chroma subsampling : 4:2:0
Bit depth : 8 bits
Scan type : Progressive
Bits/(Pixel*Frame) : 0.296
Stream size : 582 MiB (90%)
Writing library : x264 core 114
 BT.470-6 System G, BT.601-6 625, BT.1358 625, BT.1700 625 PAL, BT.1700 625 SECAM
Transfer characteristics : BT.470-6 System B, BT.470-6 System G
Matrix coefficients : BT.470-6 System B, BT.470-6 System G, BT.601-6 625, BT.1358 625, BT.1700 625 PAL, BT.1700 625 SECAM, IEC 61966-2-4 601

Audio
ID : 1
Format : MPEG Audio
Format version : Version 1
Format profile : Layer 3
Codec ID : A_MPEG/L1
Codec ID/Hint : MP1
Duration : 1h 53mn
Bit rate mode : Constant
Bit rate : 64.0 Kbps
Channel(s) : 1 channel
Sampling rate : 44.1 KHz
Compression mode : Lossy
Stream size : 52.0 MiB (8%)